<svg width="20" height="20" viewBox="0 0 20 20" fill="none" xmlns="http://www.w3.org/2000/svg">
<path d="M9.86487 15.4128C9.6861 15.4128 9.54102 15.2486 9.54102 15.0463V13.4408C9.54102 13.2384 9.6861 13.0742 9.86487 13.0742C10.0436 13.0742 10.1887 13.2384 10.1887 13.4408V15.0463C10.1887 15.2491 10.0436 15.4128 9.86487 15.4128Z" fill="#333333"/>
<path d="M9.86545 13.8076C9.10074 13.8076 8.47852 13.1034 8.47852 12.2378C8.47852 11.3722 9.10074 10.668 9.86545 10.668C10.6302 10.668 11.2524 11.3722 11.2524 12.2378C11.2524 13.1034 10.6302 13.8076 9.86545 13.8076ZM9.86545 11.4016C9.45784 11.4016 9.12621 11.7769 9.12621 12.2383C9.12621 12.6997 9.45784 13.075 9.86545 13.075C10.2731 13.075 10.6047 12.6997 10.6047 12.2383C10.6047 11.7764 10.2731 11.4016 9.86545 11.4016Z" fill="#333333"/>
<path d="M14.6321 4.59882C14.5747 4.59882 14.5172 4.57292 14.4745 4.5216C14.3929 4.42336 14.3972 4.26843 14.4844 4.17606L15.4957 3.10328C15.5825 3.01091 15.7194 3.01579 15.801 3.11452C15.8826 3.21276 15.8783 3.36769 15.791 3.46006L14.7798 4.53284C14.7379 4.57732 14.6848 4.59882 14.6321 4.59882Z" fill="#333333"/>
<path d="M16.6559 5.61535C16.6516 5.61535 16.6472 5.61535 16.6434 5.61486L14.7814 5.49219C14.6623 5.48437 14.5716 5.36854 14.5785 5.23414C14.5854 5.09924 14.6873 4.99563 14.8065 5.00443L16.6684 5.1271C16.7876 5.13492 16.8783 5.25075 16.8713 5.38516C16.8644 5.51516 16.7694 5.61535 16.6559 5.61535Z" fill="#333333"/>
<path d="M16.2796 18.4398H3.4508C3.27204 18.4398 3.12695 18.2756 3.12695 18.0733V8.00913C3.12695 7.80679 3.27204 7.64258 3.4508 7.64258H16.2796C16.4583 7.64258 16.6034 7.80679 16.6034 8.00913V18.0733C16.6034 18.2756 16.4583 18.4398 16.2796 18.4398ZM3.77465 17.7067H15.9557V8.37569H3.77465V17.7067Z" fill="#333333"/>
<path d="M5.81371 7.98015H5.16602V6.51393C5.16602 3.78285 7.27277 1.56055 9.8627 1.56055C11.3395 1.56055 12.7013 2.27118 13.5982 3.51062L13.0973 3.97541C12.324 2.90703 11.1447 2.29415 9.8627 2.29415C7.62986 2.29415 5.81371 4.18704 5.81371 6.51441V7.98015Z" fill="#333333"/>
</svg>
