<svg width="20" height="20" viewBox="0 0 20 20" fill="none" xmlns="http://www.w3.org/2000/svg">
<path d="M16.7336 17.1418H3.40951C3.24492 17.1418 3.11133 16.9906 3.11133 16.8043C3.11133 16.618 3.24492 16.4668 3.40951 16.4668H16.7336C16.8982 16.4668 17.0318 16.618 17.0318 16.8043C17.0318 16.9906 16.8982 17.1418 16.7336 17.1418Z" fill="#333333"/>
<mask id="mask0_4650_11985" style="mask-type:luminance" maskUnits="userSpaceOnUse" x="2" y="3" width="16" height="14">
<path d="M17.6637 3.07617H2.4375V16.8046H17.6637V3.07617Z" fill="white"/>
</mask>
<g mask="url(#mask0_4650_11985)">
<path d="M7.82357 18.6571C7.73292 18.6571 7.64346 18.6103 7.58462 18.5221L3.08678 11.7297C3.03947 11.6581 3.0192 11.5681 3.03033 11.4795C3.04146 11.3908 3.08321 11.3107 3.14682 11.2572L12.0825 3.67675C12.2141 3.56514 12.4009 3.59529 12.4999 3.74425L16.9977 10.5371C17.0451 10.6087 17.0653 10.6987 17.0542 10.7873C17.0431 10.876 17.0013 10.9561 16.9377 11.0096L8.00208 18.5901C7.9484 18.6355 7.88559 18.6571 7.82357 18.6571ZM3.74279 11.5951L7.8828 17.8475L16.3413 10.6721L12.2013 4.41926L3.74279 11.5951Z" fill="#333333"/>
</g>
<mask id="mask1_4650_11985" style="mask-type:luminance" maskUnits="userSpaceOnUse" x="2" y="3" width="16" height="14">
<path d="M17.6637 3.07617H2.4375V16.8046H17.6637V3.07617Z" fill="white"/>
</mask>
<g mask="url(#mask1_4650_11985)">
<path d="M3.32513 11.8647C3.16768 11.8647 3.03569 11.7248 3.02773 11.5448C3.01939 11.3585 3.14582 11.2001 3.31002 11.1902L9.82677 10.8081L11.9797 3.83568C12.0341 3.65973 12.2039 3.56702 12.3594 3.62823C12.5148 3.68988 12.5967 3.88203 12.5426 4.05798L10.3237 11.2442C10.284 11.3738 10.1786 11.4629 10.0578 11.4701L3.34103 11.8638C3.33546 11.8647 3.33029 11.8647 3.32513 11.8647Z" fill="#333333"/>
</g>
</svg>
