<svg width="176" height="30" viewBox="0 0 176 30" fill="none" xmlns="http://www.w3.org/2000/svg">
<g clip-path="url(#clip0_4650_18240)">
<path d="M14.5927 13.8988L10.1427 12.3731C6.71933 11.2471 5.25831 9.83759 5.25831 7.65741C5.25831 5.25385 7.12144 3.76078 10.1212 3.76078C13.6022 3.76078 15.5189 5.58565 15.5189 8.90098V9.2171H19.914V8.90098C19.9154 3.4943 16.1194 0 10.2459 0C4.72216 0 0.864545 3.23173 0.864545 7.85857C0.864545 11.7121 2.89388 14.2972 6.88553 15.5395L11.6626 17.1854C14.8648 18.2644 16.0551 19.5315 16.0551 21.8606C16.0551 24.6325 14.1531 26.1582 10.6989 26.1582C6.7515 26.1582 4.39511 23.8918 4.39511 20.0958V19.7797H0V20.0958C0 26.298 4.01444 30 10.7391 30C16.6381 30 20.4502 26.7578 20.4502 21.7404C20.4502 17.8425 18.4798 15.2051 14.5927 13.9001V13.8988Z" fill="white"/>
<path d="M39.4269 0.641602H28.7695V29.3575H33.1646V20.6525H39.4269C45.22 20.6525 49.4261 16.4528 49.4261 10.6673C49.4261 4.88178 45.2214 0.641602 39.4269 0.641602ZM33.1646 4.56436H39.2205C42.5862 4.56436 45.0297 7.1312 45.0297 10.6673C45.0297 14.2034 42.5862 16.7297 39.2205 16.7297H33.1646V4.56436Z" fill="white"/>
<path d="M77.5541 10.6673C77.5541 4.85827 73.3493 0.641602 67.5548 0.641602H56.8975V29.3575H61.2926V20.6525H66.7989L72.3561 29.3575H77.3986L71.4553 19.9758C75.2272 18.5272 77.5527 14.9963 77.5527 10.666L77.5541 10.6673ZM73.159 10.6673C73.159 14.1799 70.7154 16.7297 67.3498 16.7297H61.2939V4.56436H67.3498C70.7154 4.56436 73.159 7.1312 73.159 10.6673Z" fill="white"/>
<path d="M92.2506 6.68848H87.8555V25.5407H92.2506V6.68848Z" fill="white"/>
<path d="M121.158 21.7589L108.703 0.641602H104.198V29.3575H108.428V8.23761L120.925 29.3575H125.388V0.641602H121.158V21.7589Z" fill="white"/>
<path d="M149.826 15.0849V19.0077H156.747C155.642 23.6358 152.401 26.0785 147.352 26.0785C144.368 26.0785 141.795 25.1014 139.912 23.2544C137.889 21.2714 136.787 18.3976 136.809 15.1594C136.786 11.7069 137.893 8.70765 139.926 6.71427C141.788 4.88809 144.413 3.92275 147.517 3.92275C151.608 3.92275 154.673 5.89262 155.518 9.06296L155.581 9.2994H160.324L160.269 8.93756C159.48 3.67456 154.235 0 147.516 0C142.827 0 138.894 1.56753 136.144 4.53279C133.631 7.24201 132.247 11.0158 132.247 15.1594C132.226 19.4061 133.726 23.2243 136.471 25.9126C139.201 28.5866 142.964 30.0013 147.351 30.0013C154.932 30.0013 160.044 25.8996 161.379 18.749L161.384 15.0862H149.826V15.0849Z" fill="white"/>
<path d="M171.459 19.793C168.955 19.793 166.918 21.7785 166.918 24.2186C166.918 26.6588 168.955 28.6443 171.459 28.6443C173.963 28.6443 176 26.6588 176 24.2186C176 21.7785 173.963 19.793 171.459 19.793Z" fill="#FCEA54"/>
</g>
<defs>
<clipPath id="clip0_4650_18240">
<rect width="176" height="30" fill="white"/>
</clipPath>
</defs>
</svg>
